<svg width="20" height="20" viewBox="0 0 20 20" fill="none" xmlns="http://www.w3.org/2000/svg">
<path d="M17.1833 7.04134C16.3083 3.19134 12.95 1.45801 9.99999 1.45801C9.99999 1.45801 9.99999 1.45801 9.99165 1.45801C7.04999 1.45801 3.68332 3.18301 2.80832 7.03301C1.83332 11.333 4.46665 14.9747 6.84999 17.2663C7.73332 18.1163 8.86665 18.5413 9.99999 18.5413C11.1333 18.5413 12.2667 18.1163 13.1417 17.2663C15.525 14.9747 18.1583 11.3413 17.1833 7.04134ZM9.99999 11.2163C8.54999 11.2163 7.37499 10.0413 7.37499 8.59134C7.37499 7.14134 8.54999 5.96634 9.99999 5.96634C11.45 5.96634 12.625 7.14134 12.625 8.59134C12.625 10.0413 11.45 11.2163 9.99999 11.2163Z" fill="#08A188"/>
</svg>
